<?xml version="1.0" encoding="UTF-8" standalone="no"?><!DOCTYPE svg PUBLIC "-//W3C//DTD SVG 1.1//EN" "http://www.w3.org/Graphics/SVG/1.1/DTD/svg11.dtd"><svg width="100%" height="100%" viewBox="0 0 4897 6731" version="1.1" xmlns="http://www.w3.org/2000/svg" xmlns:xlink="http://www.w3.org/1999/xlink" xml:space="preserve" xmlns:serif="http://www.serif.com/" style="fill-rule:evenodd;clip-rule:evenodd;stroke-linecap:round;stroke-linejoin:round;stroke-miterlimit:1.5;"><rect id="Artboard3" x="0" y="0" width="4896.69" height="6730.84" style="fill:none;"/><clipPath id="_clip1"><rect x="0" y="0" width="4896.69" height="6730.84"/></clipPath><g clip-path="url(#_clip1)"><g><clipPath id="_clip2"><rect x="-151.005" y="0" width="5047.69" height="6730.84"/></clipPath><g clip-path="url(#_clip2)"><path d="M1533.75,-440.173c-61.572,-61.572 -161.55,-61.572 -223.122,0l-1147.46,1147.46c-61.572,61.572 -61.572,161.549 0,223.121c61.572,61.572 161.55,61.572 223.122,0l1147.46,-1147.46c61.572,-61.572 61.572,-161.549 0,-223.121Z" style="fill:none;stroke:#4e5e4a;stroke-width:35.42px;"/><path d="M4299.39,-610.298c-142.207,-142.207 -373.114,-142.207 -515.321,0l-3514.77,3514.77c-142.207,142.207 -142.207,373.114 0,515.321c142.206,142.206 373.114,142.206 515.32,0l3514.77,-3514.77c142.206,-142.206 142.206,-373.114 0,-515.32Z" style="fill:none;stroke:#4e5e4a;stroke-width:35.42px;"/><g><path d="M3317.63,4144.69c-142.207,-142.207 -373.114,-142.207 -515.321,0l-2695.65,2695.65c-142.207,142.207 -142.207,373.114 0,515.321c142.207,142.207 373.114,142.207 515.321,0l2695.65,-2695.65c142.206,-142.207 142.206,-373.114 0,-515.321Z" style="fill:none;stroke:#ffc300;stroke-width:35.42px;"/><path d="M3496.88,3450.11c142.207,-142.207 373.114,-142.207 515.321,0c142.207,142.206 142.207,373.114 0,515.32c-142.207,142.207 -373.114,142.207 -515.321,0c-142.206,-142.206 -142.206,-373.114 0,-515.32Z" style="fill:none;stroke:#ffc300;stroke-width:35.42px;"/></g><path d="M1183.52,-319.633c-61.572,-61.572 -161.55,-61.572 -223.121,0l-751.574,751.574c-61.572,61.572 -61.572,161.549 0,223.121c61.572,61.572 161.549,61.572 223.121,0l751.574,-751.574c61.572,-61.572 61.572,-161.549 0,-223.121Z" style="fill:#ffc300;"/><path d="M4566.44,5899.56c-61.572,-61.572 -161.549,-61.572 -223.121,0l-1147.46,1147.46c-61.572,61.572 -61.572,161.549 0,223.121c61.572,61.572 161.549,61.572 223.121,0l1147.46,-1147.46c61.572,-61.572 61.572,-161.549 0,-223.121Z" style="fill:#4e5e4a;"/><path d="M4216.21,6020.1c-61.572,-61.572 -161.55,-61.572 -223.122,0l-751.574,751.574c-61.572,61.572 -61.572,161.549 0,223.121c61.572,61.572 161.55,61.572 223.122,0l751.574,-751.574c61.572,-61.572 61.572,-161.549 0,-223.121Z" style="fill:none;stroke:#ffc300;stroke-width:35.42px;"/><path d="M5297.91,3986.13c-61.572,-61.572 -161.549,-61.572 -223.121,0l-1147.46,1147.46c-61.572,61.572 -61.572,161.549 0,223.121c61.572,61.572 161.549,61.572 223.121,0l1147.46,-1147.46c61.572,-61.572 61.572,-161.549 0,-223.121Z" style="fill:none;stroke:#4e5e4a;stroke-width:35.42px;"/><path d="M4947.68,4106.67c-61.572,-61.572 -161.549,-61.572 -223.121,0l-751.574,751.574c-61.572,61.572 -61.572,161.549 0,223.121c61.572,61.572 161.549,61.572 223.121,0l751.574,-751.574c61.572,-61.572 61.572,-161.549 0,-223.121Z" style="fill:none;stroke:#ffc300;stroke-width:35.42px;"/><path d="M4532,1031.56c-61.572,-61.572 -161.549,-61.572 -223.121,0l-1147.46,1147.46c-61.572,61.572 -61.572,161.549 0,223.121c61.572,61.572 161.549,61.572 223.121,0l1147.46,-1147.46c61.572,-61.572 61.572,-161.549 0,-223.121Z" style="fill:#4e5e4a;"/><path d="M5229.02,592.97c-61.572,-61.572 -161.55,-61.572 -223.122,0l-1078.57,1078.57c-61.572,61.572 -61.572,161.549 0,223.121c61.572,61.572 161.549,61.572 223.121,0l1078.57,-1078.57c61.572,-61.572 61.572,-161.549 0,-223.121Z" style="fill:none;stroke:#ffc300;stroke-width:35.42px;"/><path d="M1577.42,3986.13c-61.572,-61.572 -161.549,-61.572 -223.121,0l-1147.46,1147.46c-61.572,61.572 -61.572,161.549 0,223.121c61.572,61.572 161.549,61.572 223.121,0l1147.46,-1147.46c61.572,-61.572 61.572,-161.549 0,-223.121Z" style="fill:#ffc300;"/><path d="M2274.45,3547.54c-61.572,-61.572 -161.55,-61.572 -223.122,0l-1078.57,1078.57c-61.572,61.572 -61.572,161.549 0,223.121c61.572,61.572 161.549,61.572 223.121,0l1078.57,-1078.57c61.572,-61.572 61.572,-161.549 0,-223.121Z" style="fill:none;stroke:#4e5e4a;stroke-width:35.42px;"/></g></g></g></svg>